<svg width="26" height="26" viewBox="0 0 26 26" fill="none" xmlns="http://www.w3.org/2000/svg">
<path fill-rule="evenodd" clip-rule="evenodd" d="M0.292893 0.292894C0.683417 -0.0976309 1.31658 -0.0976312 1.70711 0.292893L13 11.5858L24.2929 0.292917C24.6834 -0.0976072 25.3166 -0.0976068 25.7071 0.292918C26.0976 0.683442 26.0976 1.31661 25.7071 1.70713L14.4142 13L25.7071 24.2929C26.0976 24.6834 26.0976 25.3166 25.7071 25.7071C25.3166 26.0976 24.6834 26.0976 24.2929 25.7071L13 14.4142L1.70711 25.7071C1.31658 26.0976 0.683418 26.0976 0.292894 25.7071C-0.0976302 25.3166 -0.0976299 24.6834 0.292895 24.2929L11.5858 13L0.292894 1.70711C-0.0976309 1.31658 -0.0976312 0.683418 0.292893 0.292894Z" fill="black"/>
</svg>
