<svg width="18" height="18" viewBox="0 0 18 18" fill="none" xmlns="http://www.w3.org/2000/svg">
<path d="M10.9286 1.92857C10.9286 2.99369 10.0651 3.85714 9 3.85714C7.93488 3.85714 7.07143 2.99369 7.07143 1.92857C7.07143 0.863451 7.93488 0 9 0C10.0651 0 10.9286 0.863451 10.9286 1.92857Z" fill="black"/>
<path d="M18 1.92857C18 2.99369 17.1365 3.85714 16.0714 3.85714C15.0063 3.85714 14.1429 2.99369 14.1429 1.92857C14.1429 0.863451 15.0063 0 16.0714 0C17.1365 0 18 0.863451 18 1.92857Z" fill="black"/>
<path d="M3.85714 1.92857C3.85714 2.99369 2.99369 3.85714 1.92857 3.85714C0.863451 3.85714 0 2.99369 0 1.92857C0 0.863451 0.863451 6.13076e-07 1.92857 6.13076e-07C2.99369 6.13076e-07 3.85714 0.863451 3.85714 1.92857Z" fill="black"/>
<path d="M10.9286 9C10.9286 10.0651 10.0651 10.9286 9 10.9286C7.93488 10.9286 7.07143 10.0651 7.07143 9C7.07143 7.93488 7.93488 7.07143 9 7.07143C10.0651 7.07143 10.9286 7.93488 10.9286 9Z" fill="black"/>
<path d="M18 9C18 10.0651 17.1365 10.9286 16.0714 10.9286C15.0063 10.9286 14.1429 10.0651 14.1429 9C14.1429 7.93488 15.0063 7.07143 16.0714 7.07143C17.1365 7.07143 18 7.93488 18 9Z" fill="black"/>
<path d="M3.85714 9C3.85714 10.0651 2.99369 10.9286 1.92857 10.9286C0.863451 10.9286 6.13076e-07 10.0651 6.13076e-07 9C6.13076e-07 7.93488 0.863451 7.07143 1.92857 7.07143C2.99369 7.07143 3.85714 7.93488 3.85714 9Z" fill="black"/>
<path d="M10.9286 16.0714C10.9286 17.1365 10.0651 18 9 18C7.93488 18 7.07143 17.1365 7.07143 16.0714C7.07143 15.0063 7.93488 14.1429 9 14.1429C10.0651 14.1429 10.9286 15.0063 10.9286 16.0714Z" fill="black"/>
<path d="M18 16.0714C18 17.1365 17.1365 18 16.0714 18C15.0063 18 14.1429 17.1365 14.1429 16.0714C14.1429 15.0063 15.0063 14.1429 16.0714 14.1429C17.1365 14.1429 18 15.0063 18 16.0714Z" fill="black"/>
<path d="M3.85714 16.0714C3.85714 17.1365 2.99369 18 1.92857 18C0.863451 18 6.13076e-07 17.1365 6.13076e-07 16.0714C6.13076e-07 15.0063 0.863451 14.1429 1.92857 14.1429C2.99369 14.1429 3.85714 15.0063 3.85714 16.0714Z" fill="black"/>
</svg>
