<svg width="18" height="20" viewBox="0 0 18 20" fill="none" xmlns="http://www.w3.org/2000/svg">
<path fill-rule="evenodd" clip-rule="evenodd" d="M8.89634 0.00133133C8.91357 0.000447392 8.93093 0 8.94839 0H9.05161C9.06907 0 9.08643 0.000447392 9.10367 0.00133133C14.0514 0.0861239 18 4.20711 18 9.23264C18 11.988 16.8173 14.2069 15.3719 15.8872C13.933 17.5601 12.1993 18.7422 10.9856 19.4604C9.76973 20.1799 8.23027 20.1799 7.01438 19.4604C5.80074 18.7422 4.06695 17.5601 2.62805 15.8872C1.18272 14.2069 0 11.988 0 9.23264C0 4.20711 3.94864 0.0861235 8.89634 0.00133133ZM9 2.00019C5.14996 2.02844 2 5.23496 2 9.23264C2 11.3761 2.91158 13.1499 4.1443 14.583C5.38346 16.0236 6.91149 17.0756 8.03289 17.7392C8.62064 18.0869 9.37936 18.0869 9.96711 17.7392C11.0885 17.0756 12.6165 16.0236 13.8557 14.583C15.0884 13.1499 16 11.3761 16 9.23264C16 5.23496 12.85 2.02844 9 2.00019ZM9 6.09049C7.36412 6.09049 6 7.45295 6 9.18099C6 10.909 7.36412 12.2715 9 12.2715C10.6359 12.2715 12 10.909 12 9.18099C12 7.45295 10.6359 6.09049 9 6.09049ZM4 9.18099C4 6.39079 6.2176 4.09049 9 4.09049C11.7824 4.09049 14 6.39079 14 9.18099C14 11.9712 11.7824 14.2715 9 14.2715C6.2176 14.2715 4 11.9712 4 9.18099Z" fill="black"/>
</svg>
