<svg width="40" height="40" viewBox="0 0 40 40" fill="none" xmlns="http://www.w3.org/2000/svg">
<path d="M16.75 19.181C16.75 17.3202 18.2208 15.8405 20 15.8405C21.7792 15.8405 23.25 17.3202 23.25 19.181C23.25 21.0418 21.7792 22.5215 20 22.5215C18.2208 22.5215 16.75 21.0418 16.75 19.181Z" fill="black"/>
<path fill-rule="evenodd" clip-rule="evenodd" d="M12.75 19.2326C12.75 15.1021 16.0067 11.7785 20 11.7502C23.9933 11.7785 27.25 15.1021 27.25 19.2326C27.25 21.4526 26.3045 23.282 25.0452 24.746C23.7811 26.2157 22.2274 27.2839 21.0944 27.9543C20.4282 28.3486 19.5718 28.3486 18.9056 27.9543C17.7726 27.2839 16.2189 26.2157 14.9548 24.746C13.6955 23.282 12.75 21.4526 12.75 19.2326ZM20 14.3405C17.3609 14.3405 15.25 16.5236 15.25 19.181C15.25 21.8384 17.3609 24.0215 20 24.0215C22.6391 24.0215 24.75 21.8384 24.75 19.181C24.75 16.5236 22.6391 14.3405 20 14.3405Z" fill="black"/>
<path fill-rule="evenodd" clip-rule="evenodd" d="M20 40C31.0457 40 40 31.0457 40 20C40 8.9543 31.0457 0 20 0C8.9543 0 0 8.9543 0 20C0 31.0457 8.9543 40 20 40ZM19.9484 10.25C19.9339 10.25 19.9196 10.2504 19.9053 10.2512C15.0966 10.3311 11.25 14.337 11.25 19.2326C11.25 21.9115 12.3988 24.0748 13.8176 25.7242C15.2315 27.368 16.9396 28.5339 18.1417 29.2452C19.2791 29.9183 20.7209 29.9183 21.8583 29.2452C23.0604 28.5339 24.7685 27.368 26.1824 25.7242C27.6012 24.0748 28.75 21.9115 28.75 19.2326C28.75 14.337 24.9034 10.3311 20.0947 10.2512C20.0804 10.2504 20.0661 10.25 20.0516 10.25H19.9484Z" fill="black"/>
</svg>
