<svg width="30" height="30" viewBox="0 0 30 30" fill="none" xmlns="http://www.w3.org/2000/svg">
<path fill-rule="evenodd" clip-rule="evenodd" d="M6.6665 2.6665C4.45737 2.6665 2.6665 4.45737 2.6665 6.6665V23.3332C2.6665 25.5423 4.45736 27.3332 6.6665 27.3332H23.3332C25.5423 27.3332 27.3332 25.5423 27.3332 23.3332V14.9998C27.3332 14.4476 27.7809 13.9998 28.3332 13.9998C28.8855 13.9998 29.3332 14.4476 29.3332 14.9998V23.3332C29.3332 26.6469 26.6469 29.3332 23.3332 29.3332H6.6665C3.3528 29.3332 0.666504 26.6469 0.666504 23.3332V6.6665C0.666504 3.3528 3.3528 0.666504 6.6665 0.666504H14.9998C15.5521 0.666504 15.9998 1.11422 15.9998 1.6665C15.9998 2.21879 15.5521 2.6665 14.9998 2.6665H6.6665ZM21.6665 2.6665C21.1142 2.6665 20.6665 2.21879 20.6665 1.6665C20.6665 1.11422 21.1142 0.666504 21.6665 0.666504H28.3332C28.8855 0.666504 29.3332 1.11422 29.3332 1.6665V8.33317C29.3332 8.88546 28.8855 9.33317 28.3332 9.33317C27.7809 9.33317 27.3332 8.88546 27.3332 8.33317V4.08072L20.7069 10.7069C20.3164 11.0975 19.6833 11.0975 19.2927 10.7069C18.9022 10.3164 18.9022 9.68325 19.2927 9.29273L25.919 2.6665H21.6665Z" fill="black"/>
</svg>
