<svg width="19" height="19" viewBox="0 0 19 19" fill="none" xmlns="http://www.w3.org/2000/svg">
<path fill-rule="evenodd" clip-rule="evenodd" d="M0 9C0 4.02944 4.02944 0 9 0C13.9706 0 18 4.02944 18 9C18 11.1246 17.2628 13.0784 16.0319 14.6176L18.2071 16.7929C18.5976 17.1834 18.5976 17.8166 18.2071 18.2071C17.8166 18.5976 17.1834 18.5976 16.7929 18.2071L14.6176 16.0319C13.0784 17.2628 11.1246 18 9 18C4.02944 18 0 13.9706 0 9ZM9 2C5.13401 2 2 5.13401 2 9C2 12.866 5.13401 16 9 16C10.9333 16 12.6819 15.2176 13.9497 13.9497C15.2176 12.6819 16 10.9333 16 9C16 5.13401 12.866 2 9 2Z" fill="black"/>
</svg>
