<svg width="56" height="56" viewBox="0 0 56 56" fill="none" xmlns="http://www.w3.org/2000/svg">
<rect width="56" height="56" rx="8" fill="white"/>
<path fill-rule="evenodd" clip-rule="evenodd" d="M10.0057 11.4583C10.0057 12.2604 10.5687 12.9303 11.2557 12.9458C11.9437 12.9624 11.6057 13.4806 10.5057 14.0989C1.7537 19.0115 0.368704 31.9606 7.8867 38.5765C9.3467 39.8608 9.7957 41.1004 9.3807 42.7056L8.7887 45H19.0057H29.2227L28.6237 42.6803C27.8567 39.7072 30.6927 36.9199 32.0627 39.2999C35.1497 44.6636 36.1357 45.106 44.3147 44.8036L52.1237 44.5139L46.0647 36.0769C42.7327 31.4365 40.0057 27.3717 40.0057 27.0431C40.0057 26.7144 40.4777 25.9172 41.0547 25.2717C41.6317 24.6261 44.3727 21.0347 47.1467 17.2917L52.1887 10.4861L43.8617 10.2003C38.4007 10.0126 35.4077 10.2858 35.1647 10.9946C34.9607 11.5886 33.8297 13.1451 32.6497 14.4528L30.5057 16.8299L27.5057 14.8796C25.8557 13.8072 25.0687 12.9264 25.7557 12.9235C26.4437 12.9196 27.0057 12.2604 27.0057 11.4583C27.0057 10.2761 25.3947 10 18.5057 10C11.6167 10 10.0057 10.2761 10.0057 11.4583ZM13.0057 23.0793C13.0057 25.995 13.5367 29.5135 14.1857 30.8979C15.2017 33.066 15.0727 33.6999 13.2607 35.4625L11.1557 37.509L9.0247 34.2054C6.4447 30.2047 6.6967 22.74 9.5147 19.7125C12.3197 16.6996 13.0057 17.3607 13.0057 23.0793ZM27.9377 20.6011C31.1167 24.9421 30.7437 31.1089 27.0467 35.3147C25.4187 37.1658 24.0687 39.4467 24.0467 40.3819C24.0127 41.7751 23.0797 42.0833 18.8907 42.0833H13.7757L15.5437 39.4097C16.5157 37.9397 18.8177 35.2933 20.6587 33.5297C23.7677 30.5508 24.0057 29.8781 24.0057 24.0506C24.0057 20.6001 24.4247 17.7778 24.9377 17.7778C25.4497 17.7778 26.7997 19.0485 27.9377 20.6011Z" fill="#0000FF"/>
<path fill-rule="evenodd" clip-rule="evenodd" d="M10.0057 11.4583C10.0057 12.2604 10.5617 12.9167 11.2417 12.9167C11.9217 12.9167 11.0517 13.9006 9.30868 15.1042C1.53268 20.4718 0.812681 32.3524 7.88668 38.5765C9.34668 39.8608 9.79568 41.1004 9.38068 42.7056L8.78868 45H19.0057C29.0967 45 29.2157 44.9728 28.6727 42.8125C28.3707 41.6099 28.7107 39.8569 29.4287 38.9188C30.6217 37.3583 30.9597 37.545 33.3837 41.1063L36.0337 45H44.0787C50.2327 45 51.9537 44.7142 51.4017 43.7847C51.0057 43.1168 48.2787 39.2211 45.3427 35.13C39.5457 27.0479 39.5227 26.9964 41.0357 25.2717C43.0197 23.0093 50.1697 13.3863 51.1187 11.7014C51.9947 10.1449 51.3927 10 44.0547 10H36.0337L33.4017 13.8675L30.7687 17.735L28.0407 15.5689C26.5407 14.3779 25.6937 13.2569 26.1597 13.079C26.6247 12.9001 27.0057 12.135 27.0057 11.3776C27.0057 10.2975 25.1727 10 18.5057 10C11.6167 10 10.0057 10.2761 10.0057 11.4583ZM13.0057 23.0793C13.0057 25.995 13.5267 29.4931 14.1647 30.8532C15.1327 32.9192 15.0197 33.6513 13.4777 35.3079L11.6317 37.2912L9.56868 35.2856C6.71868 32.5137 6.61968 22.8226 9.41068 19.8243C12.3247 16.6937 13.0057 17.3111 13.0057 23.0793ZM27.9377 20.6011C31.1167 24.9421 30.7437 31.1089 27.0467 35.3147C25.4187 37.1658 24.0687 39.4467 24.0467 40.3819C24.0127 41.7751 23.0797 42.0833 18.8907 42.0833H13.7757L15.5437 39.4097C16.5157 37.9397 18.8177 35.2933 20.6587 33.5297C23.7677 30.5508 24.0057 29.8781 24.0057 24.0506C24.0057 20.6001 24.4247 17.7778 24.9377 17.7778C25.4497 17.7778 26.7997 19.0485 27.9377 20.6011Z" fill="#003DA6"/>
<path fill-rule="evenodd" clip-rule="evenodd" d="M40.2575 18.7772L34.1355 27.5544L40.3205 36.2665C45.6155 43.7244 46.9095 44.9796 49.3145 44.9893C52.5645 45.0019 52.7425 45.4433 45.3425 35.13C39.5455 27.0479 39.5225 26.9964 41.0355 25.2717C43.0195 23.0093 50.1695 13.3863 51.1185 11.7014C51.9285 10.2615 51.6385 10 49.2275 10C46.7575 10 45.5625 11.1686 40.2575 18.7772Z" fill="#00FFFF"/>
<path fill-rule="evenodd" clip-rule="evenodd" d="M40.2575 18.7772L34.1355 27.5544L40.3205 36.2665C45.5945 43.6953 46.9155 44.9796 49.2905 44.9893C52.6345 45.0019 52.4965 44.6656 45.0995 34.8121C39.6535 27.5593 39.4495 27.08 41.0355 25.2717C43.0195 23.0093 50.1695 13.3862 51.1185 11.7014C51.9285 10.2615 51.6385 10 49.2275 10C46.7575 10 45.5625 11.1686 40.2575 18.7772Z" fill="#30D8A8"/>
<path fill-rule="evenodd" clip-rule="evenodd" d="M34.4516 26.6123C34.0826 27.1937 34.1846 28.0629 34.6786 28.5431C35.2096 29.0594 35.5766 28.6277 35.5766 27.4863C35.5766 25.2765 35.3916 25.1335 34.4516 26.6123Z" fill="#008080"/>
</svg>
